<?xml version="1.0" encoding="UTF-8" standalone="no"?>
<svg
   xmlns:dc="http://purl.org/dc/elements/1.1/"
   xmlns:cc="http://creativecommons.org/ns#"
   xmlns:rdf="http://www.w3.org/1999/02/22-rdf-syntax-ns#"
   xmlns:svg="http://www.w3.org/2000/svg"
   xmlns="http://www.w3.org/2000/svg"
   xmlns:sodipodi="http://sodipodi.sourceforge.net/DTD/sodipodi-0.dtd"
   xmlns:inkscape="http://www.inkscape.org/namespaces/inkscape"
   width="199.84325mm"
   height="160.53516mm"
   viewBox="0 0 199.84325 160.53516"
   version="1.1"
   id="svg78"
   inkscape:version="1.0.2-2 (e86c870879, 2021-01-15)"
   sodipodi:docname="JE-Logo.svg">
  <defs
     id="defs72" />
  <sodipodi:namedview
     id="base"
     pagecolor="#ffffff"
     bordercolor="#666666"
     borderopacity="1.0"
     inkscape:pageopacity="0.0"
     inkscape:pageshadow="2"
     inkscape:zoom="0.7"
     inkscape:cx="373.38711"
     inkscape:cy="317.46133"
     inkscape:document-units="mm"
     inkscape:current-layer="layer1"
     inkscape:document-rotation="0"
     showgrid="false"
     inkscape:window-width="1816"
     inkscape:window-height="1046"
     inkscape:window-x="2293"
     inkscape:window-y="-11"
     inkscape:window-maximized="1"
     fit-margin-top="0"
     fit-margin-left="0"
     fit-margin-right="0"
     fit-margin-bottom="0" />
  <metadata
     id="metadata75">
    <rdf:RDF>
      <cc:Work
         rdf:about="">
        <dc:format>image/svg+xml</dc:format>
        <dc:type
           rdf:resource="http://purl.org/dc/dcmitype/StillImage" />
        <dc:title></dc:title>
      </cc:Work>
    </rdf:RDF>
  </metadata>
  <g
     inkscape:label="Layer 1"
     inkscape:groupmode="layer"
     id="layer1"
     transform="translate(-7.0413263,-60.454135)">
    <path
       style="fill:#4d4d4d;stroke-width:1.50469"
       d="m 20.269338,219.04191 c -0.909756,-1.0962 -2.707464,-7.02093 -3.994907,-13.16609 -2.72638,-13.01341 -4.94416,-20.50365 -7.3179214,-24.71528 C 6.5877457,176.95779 5.6899287,67.382061 7.9890604,63.086108 9.6222072,60.034541 10.372296,60.009615 88.950134,60.39545 l 79.312646,0.389447 0.75234,52.039393 0.75236,52.03941 4.51409,5.2968 c 8.67644,10.1809 30.37522,38.11142 32.03673,41.2375 1.30127,2.44829 1.1683,3.87748 -0.59501,6.39494 l -2.27081,3.24203 h -90.76452 c -73.501125,0 -91.079131,-0.37907 -92.418622,-1.99306 z M 161.49165,113.43492 V 69.03209 l -73.353909,0.390488 -73.353917,0.390488 -0.400601,42.111164 c -0.220333,23.16115 -0.07231,42.96671 0.328952,44.01235 0.573931,1.49563 16.306547,1.90118 73.754507,1.90118 h 73.024968 z"
       id="path292" />
    <path
       style="fill:none;stroke-width:0.505076"
       d="m 229.0254,466.83573 c 0,-43.19665 0.0596,-60.868 0.13251,-39.26968 0.0729,21.59832 0.0729,56.94104 0,78.53936 -0.0729,21.59832 -0.13251,3.92697 -0.13251,-39.26968 z"
       id="path298"
       transform="scale(0.26458333)" />
    <path
       style="fill:none;stroke-width:0.505076"
       d="m 228.01524,466.83573 c 0,-43.19665 0.0596,-60.868 0.13251,-39.26968 0.0729,21.59832 0.0729,56.94104 0,78.53936 -0.0729,21.59832 -0.13251,3.92697 -0.13251,-39.26968 z"
       id="path300"
       transform="scale(0.26458333)" />
    <path
       style="fill:none;stroke-width:0.505076"
       d="m 230.03555,466.83573 c 0,-43.19665 0.0596,-60.868 0.13251,-39.26968 0.0729,21.59832 0.0729,56.94104 0,78.53936 -0.0729,21.59832 -0.13251,3.92697 -0.13251,-39.26968 z"
       id="path302"
       transform="scale(0.26458333)" />
    <path
       style="fill:none;stroke-width:0.505076"
       d="m 230.79945,466.83573 v -78.28682 h 131.31983 131.31983 v 78.28682 78.28682 H 362.11928 230.79945 Z"
       id="path304"
       transform="scale(0.26458333)" />
    <path
       style="fill:none;stroke-width:0.505076"
       d="m 230.79945,466.83573 v -78.28682 h 131.31983 131.31983 v 78.28682 78.28682 H 362.11928 230.79945 Z"
       id="path306"
       transform="scale(0.26458333)" />
    <path
       style="fill:none;stroke-width:0.505076"
       d="m 230.79945,466.83573 v -78.28682 h 131.31983 131.31983 v 78.28682 78.28682 H 362.11928 230.79945 Z"
       id="path308"
       transform="scale(0.26458333)" />
    <path
       style="fill:none;stroke-width:0.505076"
       d="m 230.79945,466.83573 v -78.28682 h 131.31983 131.31983 v 78.28682 78.28682 H 362.11928 230.79945 Z"
       id="path310"
       transform="scale(0.26458333)" />
    <path
       style="fill:none;stroke-width:0.505076"
       d="m 229.45874,548.77662 c -0.32071,-0.20409 59.61708,-0.37107 133.19507,-0.37107 73.57799,0 133.38888,0.15449 132.91308,0.34331 -1.17706,0.46711 -265.37445,0.49468 -266.10815,0.0278 z"
       id="path312"
       transform="scale(0.26458333)" />
    <path
       style="fill:none;stroke-width:0.505076"
       d="m 208.67934,586.20244 c -1.1621,-3.43899 -1.18953,-3.99805 -0.0995,-2.02694 0.58699,1.06141 0.99673,2.3874 0.91054,2.94663 -0.11467,0.74408 -0.33221,0.49742 -0.81107,-0.91969 z"
       id="path314"
       transform="scale(0.26458333)" />
    <path
       style="fill:none;stroke-width:0.505076"
       d="m 208.44903,578.73942 c -0.82404,-0.60255 -0.87773,-2.51646 -0.80299,-28.62179 0.077,-26.88424 0.0952,-27.38471 0.4663,-12.82376 0.21241,8.33376 0.64037,21.14695 0.95102,28.47375 0.31065,7.3268 0.49821,13.38808 0.41679,13.4695 -0.0814,0.0814 -0.54542,-0.14255 -1.03112,-0.4977 z"
       id="path316"
       transform="scale(0.26458333)" />
    <path
       style="fill:none;stroke-width:0.505076"
       d="m 206.80342,476.43218 c 0,-55.69729 0.059,-78.48254 0.13115,-50.6339 0.0721,27.84865 0.0721,73.41915 0,101.2678 -0.0721,27.84864 -0.13115,5.06338 -0.13115,-50.6339 z"
       id="path318"
       transform="scale(0.26458333)" />
    <text
       xml:space="preserve"
       style="font-size:63.4547px;line-height:0;font-family:Montserrat;-inkscape-font-specification:Montserrat;stroke-width:0.330493"
       x="52.48613"
       y="135.09641"
       id="text404"><tspan
         id="tspan402"
         x="52.48613"
         y="135.09641"
         style="font-style:normal;font-variant:normal;font-weight:500;font-stretch:normal;font-size:63.4547px;line-height:3.65;font-family:Montserrat;-inkscape-font-specification:'Montserrat Medium';stroke-width:0.330493"
         sodipodi:role="line">JE</tspan></text>
    <path
       style="fill:#000000;stroke-width:1.42857"
       d="M 200.71429,833.72182 C 122.87277,832.83582 86.322134,831.309 79.404261,828.65436 74.84581,826.90512 68.27902,805.45299 57.809364,758.109 51.522837,729.68119 44.679433,706.661 37.996317,691.46085 32.087555,678.0219 31.100283,667.98592 28.389745,593.80655 26.14502,532.37508 25.97965,287.04563 28.165073,260.50194 c 1.83412,-22.27684 3.237142,-25.71866 11.464275,-28.12353 13.362056,-3.90587 81.396472,-4.57376 337.090962,-3.30918 141.58903,0.70025 257.70589,1.57047 258.03745,1.93382 0.33157,0.36335 1.85133,88.79273 3.37724,196.50974 l 2.77439,195.84909 21.35632,25.57948 c 35.45599,42.4673 100.73849,126.33956 114.1379,146.63967 7.70638,11.67515 7.45752,16.80229 -1.44195,29.70969 l -6.85652,9.9444 -239.40971,-0.25259 C 397.02009,834.84362 249.42857,834.27629 200.71429,833.72182 Z M 611.42857,428.6085 V 260.55333 l -252.5,0.92455 c -138.875,0.5085 -263.849119,1.32007 -277.720266,1.80348 l -25.220267,0.87892 -0.926186,18.75171 c -0.509401,10.31343 -1.053138,83.24941 -1.208304,162.07996 -0.270343,137.34535 -0.17315,143.40798 2.328377,145.23828 7.343036,5.3727 35.652739,5.93396 312.746646,6.20033 l 242.5,0.23313 z"
       id="path406"
       transform="scale(0.26458333)" />
    <path
       style="fill:#000000;stroke-width:1.42857"
       d="m 235.19689,510.8473 c -11.46928,-1.73077 -22.31166,-6.9923 -30.83177,-14.96187 -7.91626,-7.40473 -7.94841,-6.76657 0.84349,-16.7411 l 4.49433,-5.09886 7.06855,6.81318 c 16.71686,16.11291 43.08997,15.5555 52.89156,-1.11789 l 3.90838,-6.6485 0.42002,-55.35714 0.42002,-55.35714 h -30.06288 -30.06288 v -9.28572 -9.28571 h 41.5085 41.50849 l -0.44033,64.64285 c -0.42397,62.24128 -0.55522,64.94692 -3.53266,72.82707 -1.70077,4.50132 -4.51593,10.18348 -6.25589,12.62703 -9.37018,13.1592 -30.72864,20.1352 -51.87693,16.9438 z"
       id="path408"
       transform="scale(0.26458333)" />
  </g>
</svg>
