<?xml version="1.0" encoding="UTF-8" standalone="no"?>
<svg
   xmlns:dc="http://purl.org/dc/elements/1.1/"
   xmlns:cc="http://creativecommons.org/ns#"
   xmlns:rdf="http://www.w3.org/1999/02/22-rdf-syntax-ns#"
   xmlns:svg="http://www.w3.org/2000/svg"
   xmlns="http://www.w3.org/2000/svg"
   xmlns:sodipodi="http://sodipodi.sourceforge.net/DTD/sodipodi-0.dtd"
   xmlns:inkscape="http://www.inkscape.org/namespaces/inkscape"
   width="199.84325mm"
   height="160.53516mm"
   viewBox="0 0 199.84325 160.53516"
   version="1.1"
   id="svg78"
   inkscape:version="1.0.2-2 (e86c870879, 2021-01-15)"
   sodipodi:docname="JE-Logo.svg">
  <defs
     id="defs72" />
  <sodipodi:namedview
     id="base"
     pagecolor="#ffffff"
     bordercolor="#666666"
     borderopacity="1.0"
     inkscape:pageopacity="0.0"
     inkscape:pageshadow="2"
     inkscape:zoom="0.64"
     inkscape:cx="578.77119"
     inkscape:cy="525.13643"
     inkscape:document-units="mm"
     inkscape:current-layer="layer1"
     inkscape:document-rotation="0"
     showgrid="false"
     inkscape:window-width="1827"
     inkscape:window-height="1046"
     inkscape:window-x="-11"
     inkscape:window-y="-11"
     inkscape:window-maximized="1"
     fit-margin-top="0"
     fit-margin-left="0"
     fit-margin-right="0"
     fit-margin-bottom="0" />
  <metadata
     id="metadata75">
    <rdf:RDF>
      <cc:Work
         rdf:about="">
        <dc:format>image/svg+xml</dc:format>
        <dc:type
           rdf:resource="http://purl.org/dc/dcmitype/StillImage" />
        <dc:title />
      </cc:Work>
    </rdf:RDF>
  </metadata>
  <g
     inkscape:label="Layer 1"
     inkscape:groupmode="layer"
     id="layer1"
     transform="translate(-7.0413263,-60.454135)">
    <path
       style="fill:none;stroke-width:0.505076"
       d="m 229.0254,466.83573 c 0,-43.19665 0.0596,-60.868 0.13251,-39.26968 0.0729,21.59832 0.0729,56.94104 0,78.53936 -0.0729,21.59832 -0.13251,3.92697 -0.13251,-39.26968 z"
       id="path298"
       transform="scale(0.26458333)" />
    <path
       style="fill:none;stroke-width:0.505076"
       d="m 228.01524,466.83573 c 0,-43.19665 0.0596,-60.868 0.13251,-39.26968 0.0729,21.59832 0.0729,56.94104 0,78.53936 -0.0729,21.59832 -0.13251,3.92697 -0.13251,-39.26968 z"
       id="path300"
       transform="scale(0.26458333)" />
    <path
       style="fill:none;stroke-width:0.505076"
       d="m 230.03555,466.83573 c 0,-43.19665 0.0596,-60.868 0.13251,-39.26968 0.0729,21.59832 0.0729,56.94104 0,78.53936 -0.0729,21.59832 -0.13251,3.92697 -0.13251,-39.26968 z"
       id="path302"
       transform="scale(0.26458333)" />
    <path
       style="fill:none;stroke-width:0.505076"
       d="m 230.79945,466.83573 v -78.28682 h 131.31983 131.31983 v 78.28682 78.28682 H 362.11928 230.79945 Z"
       id="path304"
       transform="scale(0.26458333)" />
    <path
       style="fill:none;stroke-width:0.505076"
       d="m 230.79945,466.83573 v -78.28682 h 131.31983 131.31983 v 78.28682 78.28682 H 362.11928 230.79945 Z"
       id="path306"
       transform="scale(0.26458333)" />
    <path
       style="fill:none;stroke-width:0.505076"
       d="m 230.79945,466.83573 v -78.28682 h 131.31983 131.31983 v 78.28682 78.28682 H 362.11928 230.79945 Z"
       id="path308"
       transform="scale(0.26458333)" />
    <path
       style="fill:none;stroke-width:0.505076"
       d="m 230.79945,466.83573 v -78.28682 h 131.31983 131.31983 v 78.28682 78.28682 H 362.11928 230.79945 Z"
       id="path310"
       transform="scale(0.26458333)" />
    <path
       style="fill:none;stroke-width:0.505076"
       d="m 229.45874,548.77662 c -0.32071,-0.20409 59.61708,-0.37107 133.19507,-0.37107 73.57799,0 133.38888,0.15449 132.91308,0.34331 -1.17706,0.46711 -265.37445,0.49468 -266.10815,0.0278 z"
       id="path312"
       transform="scale(0.26458333)" />
    <path
       style="fill:none;stroke-width:0.505076"
       d="m 208.67934,586.20244 c -1.1621,-3.43899 -1.18953,-3.99805 -0.0995,-2.02694 0.58699,1.06141 0.99673,2.3874 0.91054,2.94663 -0.11467,0.74408 -0.33221,0.49742 -0.81107,-0.91969 z"
       id="path314"
       transform="scale(0.26458333)" />
    <path
       style="fill:none;stroke-width:0.505076"
       d="m 208.44903,578.73942 c -0.82404,-0.60255 -0.87773,-2.51646 -0.80299,-28.62179 0.077,-26.88424 0.0952,-27.38471 0.4663,-12.82376 0.21241,8.33376 0.64037,21.14695 0.95102,28.47375 0.31065,7.3268 0.49821,13.38808 0.41679,13.4695 -0.0814,0.0814 -0.54542,-0.14255 -1.03112,-0.4977 z"
       id="path316"
       transform="scale(0.26458333)" />
    <path
       style="fill:none;stroke-width:0.505076"
       d="m 206.80342,476.43218 c 0,-55.69729 0.059,-78.48254 0.13115,-50.6339 0.0721,27.84865 0.0721,73.41915 0,101.2678 -0.0721,27.84864 -0.13115,5.06338 -0.13115,-50.6339 z"
       id="path318"
       transform="scale(0.26458333)" />
    <text
       xml:space="preserve"
       style="font-size:76.5432px;line-height:0;font-family:Montserrat;-inkscape-font-specification:Montserrat;fill:#688dc3;fill-opacity:1;stroke-width:0.398662"
       x="48.26778"
       y="137.68185"
       id="text404"
       transform="scale(0.99555724,1.0044626)"><tspan
         id="tspan402"
         x="48.26778"
         y="137.68185"
         style="font-style:normal;font-variant:normal;font-weight:500;font-stretch:normal;font-size:76.5432px;line-height:3.65;font-family:Montserrat;-inkscape-font-specification:'Montserrat Medium';fill:#688dc3;fill-opacity:1;stroke-width:0.398662"
         sodipodi:role="line">JE</tspan></text>
    <path
       style="fill:#688dc3;stroke-width:0.372319;fill-opacity:1;fill-rule:evenodd"
       d="m 54.919075,218.94143 c -20.297331,-0.2308 -29.827982,-0.62853 -31.631827,-1.32005 -1.188625,-0.45566 -2.900925,-6.04385 -5.630912,-18.37673 -1.639224,-7.4053 -3.423654,-13.40195 -5.166289,-17.36152 -1.540721,-3.50078 -1.798159,-6.1151 -2.5049328,-25.43847 -0.5853196,-16.0026 -0.6284361,-79.90974 -0.05854,-86.824243 0.4782428,-5.80301 0.8440868,-6.699588 2.9893258,-7.326044 3.484185,-1.01746 21.22429,-1.191443 87.89714,-0.862026 36.91962,0.182411 67.19732,0.4091 67.28377,0.50375 0.0864,0.09466 0.48274,23.130079 0.88063,51.189843 l 0.72343,51.01774 5.56869,6.66333 c 9.24523,11.06252 26.26777,32.91085 29.76169,38.19893 2.00945,3.04132 1.94456,4.37691 -0.376,7.73924 l -1.78785,2.59046 -62.42655,-0.0658 c -34.33461,-0.0362 -72.819388,-0.18397 -85.521735,-0.32841 z M 162.01364,113.41136 V 69.633804 l -65.839876,0.24084 c -36.211935,0.132462 -68.799183,0.343872 -72.416108,0.469798 l -6.576232,0.228955 -0.241511,4.88473 c -0.132819,2.686598 -0.274605,21.686071 -0.315061,42.221043 -0.07046,35.7778 -0.04514,37.35709 0.607129,37.83388 1.914707,1.39955 9.296522,1.54576 81.549309,1.61515 l 63.23235,0.0608 z"
       id="path406" />
    <path
       style="opacity:0.639731;fill:#688dc3;fill-opacity:1;stroke-width:1.5625"
       d=""
       id="path940"
       transform="matrix(0.26458333,0,0,0.26458333,7.0413263,60.454135)" />
    <path
       style="opacity:0.639731;fill:#688dc3;fill-opacity:1;stroke-width:1.5625"
       d=""
       id="path942"
       transform="matrix(0.26458333,0,0,0.26458333,7.0413263,60.454135)" />
    <path
       style="opacity:0.639731;fill:#688dc3;fill-opacity:1;stroke-width:1.5625"
       d=""
       id="path944"
       transform="matrix(0.26458333,0,0,0.26458333,7.0413263,60.454135)" />
  </g>
</svg>
