<?xml version="1.0" encoding="UTF-8" standalone="no"?>
<svg
   xmlns:dc="http://purl.org/dc/elements/1.1/"
   xmlns:cc="http://creativecommons.org/ns#"
   xmlns:rdf="http://www.w3.org/1999/02/22-rdf-syntax-ns#"
   xmlns:svg="http://www.w3.org/2000/svg"
   xmlns="http://www.w3.org/2000/svg"
   xmlns:sodipodi="http://sodipodi.sourceforge.net/DTD/sodipodi-0.dtd"
   xmlns:inkscape="http://www.inkscape.org/namespaces/inkscape"
   width="199.84325mm"
   height="160.53516mm"
   viewBox="0 0 199.84325 160.53516"
   version="1.1"
   id="svg78"
   inkscape:version="1.0.2-2 (e86c870879, 2021-01-15)"
   sodipodi:docname="JE-Logo-yellow.svg">
  <defs
     id="defs72" />
  <sodipodi:namedview
     id="base"
     pagecolor="#ffffff"
     bordercolor="#666666"
     borderopacity="1.0"
     inkscape:pageopacity="0.0"
     inkscape:pageshadow="2"
     inkscape:zoom="0.64"
     inkscape:cx="38.477147"
     inkscape:cy="118.11744"
     inkscape:document-units="mm"
     inkscape:current-layer="layer1"
     inkscape:document-rotation="0"
     showgrid="false"
     inkscape:window-width="1827"
     inkscape:window-height="1046"
     inkscape:window-x="-11"
     inkscape:window-y="-11"
     inkscape:window-maximized="1"
     fit-margin-top="0"
     fit-margin-left="0"
     fit-margin-right="0"
     fit-margin-bottom="0" />
  <metadata
     id="metadata75">
    <rdf:RDF>
      <cc:Work
         rdf:about="">
        <dc:format>image/svg+xml</dc:format>
        <dc:type
           rdf:resource="http://purl.org/dc/dcmitype/StillImage" />
        <dc:title></dc:title>
      </cc:Work>
    </rdf:RDF>
  </metadata>
  <g
     inkscape:label="Layer 1"
     inkscape:groupmode="layer"
     id="layer1"
     transform="translate(-7.0413263,-60.454135)">
    <path
       style="fill:none;stroke-width:0.505076"
       d="m 229.0254,466.83573 c 0,-43.19665 0.0596,-60.868 0.13251,-39.26968 0.0729,21.59832 0.0729,56.94104 0,78.53936 -0.0729,21.59832 -0.13251,3.92697 -0.13251,-39.26968 z"
       id="path298"
       transform="scale(0.26458333)" />
    <path
       style="fill:none;stroke-width:0.505076"
       d="m 228.01524,466.83573 c 0,-43.19665 0.0596,-60.868 0.13251,-39.26968 0.0729,21.59832 0.0729,56.94104 0,78.53936 -0.0729,21.59832 -0.13251,3.92697 -0.13251,-39.26968 z"
       id="path300"
       transform="scale(0.26458333)" />
    <path
       style="fill:none;stroke-width:0.505076"
       d="m 230.03555,466.83573 c 0,-43.19665 0.0596,-60.868 0.13251,-39.26968 0.0729,21.59832 0.0729,56.94104 0,78.53936 -0.0729,21.59832 -0.13251,3.92697 -0.13251,-39.26968 z"
       id="path302"
       transform="scale(0.26458333)" />
    <path
       style="fill:none;stroke-width:0.505076"
       d="m 230.79945,466.83573 v -78.28682 h 131.31983 131.31983 v 78.28682 78.28682 H 362.11928 230.79945 Z"
       id="path304"
       transform="scale(0.26458333)" />
    <path
       style="fill:none;stroke-width:0.505076"
       d="m 230.79945,466.83573 v -78.28682 h 131.31983 131.31983 v 78.28682 78.28682 H 362.11928 230.79945 Z"
       id="path306"
       transform="scale(0.26458333)" />
    <path
       style="fill:none;stroke-width:0.505076"
       d="m 230.79945,466.83573 v -78.28682 h 131.31983 131.31983 v 78.28682 78.28682 H 362.11928 230.79945 Z"
       id="path308"
       transform="scale(0.26458333)" />
    <path
       style="fill:none;stroke-width:0.505076"
       d="m 230.79945,466.83573 v -78.28682 h 131.31983 131.31983 v 78.28682 78.28682 H 362.11928 230.79945 Z"
       id="path310"
       transform="scale(0.26458333)" />
    <path
       style="fill:none;stroke-width:0.505076"
       d="m 229.45874,548.77662 c -0.32071,-0.20409 59.61708,-0.37107 133.19507,-0.37107 73.57799,0 133.38888,0.15449 132.91308,0.34331 -1.17706,0.46711 -265.37445,0.49468 -266.10815,0.0278 z"
       id="path312"
       transform="scale(0.26458333)" />
    <path
       style="fill:none;stroke-width:0.505076"
       d="m 208.67934,586.20244 c -1.1621,-3.43899 -1.18953,-3.99805 -0.0995,-2.02694 0.58699,1.06141 0.99673,2.3874 0.91054,2.94663 -0.11467,0.74408 -0.33221,0.49742 -0.81107,-0.91969 z"
       id="path314"
       transform="scale(0.26458333)" />
    <path
       style="fill:none;stroke-width:0.505076"
       d="m 208.44903,578.73942 c -0.82404,-0.60255 -0.87773,-2.51646 -0.80299,-28.62179 0.077,-26.88424 0.0952,-27.38471 0.4663,-12.82376 0.21241,8.33376 0.64037,21.14695 0.95102,28.47375 0.31065,7.3268 0.49821,13.38808 0.41679,13.4695 -0.0814,0.0814 -0.54542,-0.14255 -1.03112,-0.4977 z"
       id="path316"
       transform="scale(0.26458333)" />
    <path
       style="fill:none;stroke-width:0.505076"
       d="m 206.80342,476.43218 c 0,-55.69729 0.059,-78.48254 0.13115,-50.6339 0.0721,27.84865 0.0721,73.41915 0,101.2678 -0.0721,27.84864 -0.13115,5.06338 -0.13115,-50.6339 z"
       id="path318"
       transform="scale(0.26458333)" />
    <text
       xml:space="preserve"
       style="font-size:76.5432px;line-height:0;font-family:Montserrat;-inkscape-font-specification:Montserrat;fill:#ffdc59;fill-opacity:1;stroke-width:0.398662"
       x="47.852528"
       y="137.57896"
       id="text404"
       transform="scale(0.99555723,1.0044626)"><tspan
         id="tspan402"
         x="47.852528"
         y="137.57896"
         style="font-style:normal;font-variant:normal;font-weight:500;font-stretch:normal;font-size:76.5432px;line-height:3.65;font-family:Montserrat;-inkscape-font-specification:'Montserrat Medium';fill:#ffdc59;fill-opacity:1;stroke-width:0.398662"
         sodipodi:role="line">JE</tspan></text>
    <path
       style="fill:#ffdc59;fill-opacity:1;stroke-width:0.372319"
       d="m 54.919076,218.94143 c -20.297331,-0.2308 -29.827982,-0.62853 -31.631827,-1.32005 -1.188625,-0.45566 -2.900925,-6.04385 -5.630913,-18.37673 -1.639224,-7.4053 -3.423654,-13.40195 -5.166289,-17.36152 -1.540721,-3.50078 -1.798159,-6.1151 -2.5049328,-25.43847 -0.5853196,-16.0026 -0.6284361,-79.90974 -0.05854,-86.824243 0.4782428,-5.80301 0.8440868,-6.699588 2.9893258,-7.326044 3.484185,-1.01746 21.224291,-1.191443 87.89714,-0.862026 36.91962,0.182411 67.19732,0.4091 67.28377,0.50375 0.0864,0.09466 0.48274,23.130079 0.88063,51.189843 l 0.72343,51.01774 5.56869,6.66333 c 9.24523,11.06252 26.26777,32.91085 29.76169,38.19893 2.00945,3.04132 1.94456,4.37691 -0.376,7.73924 l -1.78785,2.59046 -62.42655,-0.0658 c -34.33461,-0.0362 -72.819387,-0.18397 -85.521734,-0.32841 z M 162.01364,113.41136 V 69.633804 l -65.839875,0.24084 c -36.211936,0.132462 -68.799184,0.343872 -72.416108,0.469798 l -6.576233,0.228955 -0.241511,4.88473 c -0.132819,2.686598 -0.274605,21.686071 -0.315061,42.221043 -0.07046,35.7778 -0.04514,37.35709 0.607129,37.83388 1.914708,1.39955 9.296523,1.54576 81.54931,1.61515 l 63.232349,0.0608 z"
       id="path406" />
    <path
       style="opacity:0.639731;fill:#688dc3;fill-opacity:1;stroke-width:1.5625"
       d=""
       id="path940"
       transform="matrix(0.26458333,0,0,0.26458333,7.0413263,60.454135)" />
    <path
       style="opacity:0.639731;fill:#688dc3;fill-opacity:1;stroke-width:1.5625"
       d=""
       id="path942"
       transform="matrix(0.26458333,0,0,0.26458333,7.0413263,60.454135)" />
    <path
       style="opacity:0.639731;fill:#688dc3;fill-opacity:1;stroke-width:1.5625"
       d=""
       id="path944"
       transform="matrix(0.26458333,0,0,0.26458333,7.0413263,60.454135)" />
    <path
       style="opacity:0.639731;fill:#ffdc59;fill-opacity:1;fill-rule:nonzero;stroke-width:1.5625"
       d="M 133.00411,597.43945 C 87.803316,596.42695 70.103038,595.39024 63.080609,593.34406 57.746471,591.78977 54.919824,582.90949 39.322374,518.70435 34.537409,499.00757 27.55509,474.69218 23.806109,464.67013 15.369152,442.11585 14.353834,432.96734 11.927897,357.64165 9.3738247,278.33737 10.679433,29.185702 13.704567,18.596452 16.897151,7.4210536 18.764556,6.8470642 57.856971,5.025207 92.503938,3.4105249 577.20439,4.5745478 596.75732,6.3193926 c 10.32325,0.9212149 10.52672,1.0264021 11.25427,5.8177164 0.40752,2.683747 1.4782,57.613915 2.3793,122.067041 0.90111,64.45312 2.09881,148.91906 2.66157,187.70208 l 1.02322,70.51456 14.86186,17.76669 c 34.01946,40.6687 101.54241,126.91256 116.44122,148.72481 9.23114,13.51462 9.37411,17.64795 1.05556,30.51836 l -6.21592,9.61725 -279.33095,-0.26044 C 307.25542,598.64418 159.70792,598.0376 133.00411,597.43945 Z M 587.02525,200.13695 V 34.0385 l -194.14063,0.596191 c -224.49308,0.6894 -353.484504,2.140088 -355.339582,3.996286 -1.539204,1.540134 -2.866231,304.430373 -1.377276,314.359433 0.918572,6.12549 1.598787,7.00011 6.798465,8.74158 9.245,3.09633 72.526593,3.94102 317.105893,4.23272 l 226.95313,0.27069 z"
       id="path3476"
       transform="matrix(0.26458333,0,0,0.26458333,7.0413263,60.454135)" />
    <path
       style="opacity:0.639731;fill:#ffdc59;fill-opacity:1;fill-rule:nonzero;stroke-width:1.5625"
       d="M 387.8065,597.3502 C 106.9458,596.38027 68.055899,595.74379 62.028073,592.0184 58.84712,590.05246 55.348048,578.80679 43.310021,531.8604 36.588993,505.64946 28.214951,475.48221 24.70104,464.82207 21.187128,454.16191 17.622772,439.94241 16.780248,433.22315 12.992322,403.01385 11.753193,332.43488 12.326006,179.51615 13.00756,-2.4322558 11.788188,11.688987 27.121637,8.171697 39.958401,5.2271139 598.50834,5.0580375 603.64692,7.9971795 c 3.20428,1.8327703 3.38144,3.3290935 4.34679,36.7150535 0.55352,19.142428 2.00152,105.307447 3.2178,191.477807 l 2.21142,156.67341 17.76369,21.45159 c 38.54819,46.55117 102.72866,128.87222 113.45419,145.52198 8.06562,12.52064 8.16692,16.84325 0.69087,29.4808 l -5.75606,9.73008 -26.66581,-0.33355 C 698.24361,598.5309 551.94712,597.91702 387.8065,597.3502 Z M 587.02525,199.59134 V 32.947277 L 356.94712,34.156499 C 114.93763,35.42843 39.688463,36.482493 37.543523,38.630583 c -1.42836,1.430458 -2.747274,312.198157 -1.348735,317.794097 0.477046,1.90878 2.441086,4.31458 4.364532,5.3462 6.054181,3.24713 56.18969,3.93738 305.4503,4.20538 l 241.01563,0.25914 z"
       id="path3478"
       transform="matrix(0.26458333,0,0,0.26458333,7.0413263,60.454135)" />
    <path
       style="opacity:0.639731;fill:#ffdc59;fill-opacity:1;fill-rule:nonzero;stroke-width:1.5625"
       d="M 616.71275,597.94727 C 406.83964,597.17687 78.444202,594.29432 70.700904,593.15456 60.692784,591.68141 59.358946,589.34988 51.278299,559.20415 47.822932,546.31352 40.638096,519.94634 35.311996,500.6104 16.125183,430.95434 16.980271,435.33026 15.082528,397.08615 12.87613,352.6219 13.759116,23.917322 16.103493,17.016649 19.502902,7.0104856 0.30067457,7.6838759 295.619,7.2145051 443.4315,6.9795759 573.50962,7.3311379 584.6815,7.9957551 l 20.3125,1.2083938 0.95961,8.9283831 c 1.45407,13.528975 6.00434,268.964988 6.04957,339.601278 l 0.022,34.46714 13.46736,16.31411 c 45.11339,54.64946 109.75272,137.72859 118.63282,152.47545 6.95039,11.54225 6.99722,17.40559 0.22911,28.68239 -4.63805,7.72776 -5.70021,8.59833 -10.54041,8.63911 -2.96045,0.025 -55.65606,-0.13922 -117.10138,-0.36474 z M 587.02525,199.22671 V 32.21803 l -130.85938,0.674311 c -193.76284,0.998447 -413.357357,3.33315 -416.202721,4.425019 -1.843828,0.707542 -2.754583,4.049011 -3.496797,12.829379 -0.551982,6.529958 -1.003606,78.454471 -1.003606,159.832241 0,147.24426 0.01547,147.97362 3.207533,150.86236 4.910728,4.44415 28.100614,4.83829 301.870591,5.13075 l 246.48438,0.26331 z"
       id="path3480"
       transform="matrix(0.26458333,0,0,0.26458333,7.0413263,60.454135)" />
    <path
       style="opacity:0.639731;fill:#ffdc59;fill-opacity:1;fill-rule:nonzero;stroke-width:1.5625"
       d="m 461.79526,596.73459 c -0.42217,-0.42218 -45.0158,-0.88121 -99.09694,-1.02007 C 189.59642,595.2701 70.695152,593.37963 65.719724,590.99273 59.879604,588.19101 58.857699,585.19712 39.234787,513.39932 15.091025,425.06029 16.504189,433.98237 15.30685,362.32915 14.124898,291.59677 14.671225,48.8322 16.060215,27.565718 16.579328,19.617706 17.663755,12.707071 18.470054,12.208751 23.646523,9.0095168 75.270301,8.3484089 321.83201,8.3238157 c 149.33903,-0.014891 273.94397,0.4266208 276.89986,0.9811479 3.02133,0.566807 5.69372,2.1336374 6.10383,3.5787084 1.08234,3.813744 3.34098,95.676698 4.82692,196.320478 0.43139,29.21875 1.21828,82.62964 1.74864,118.69086 l 0.96428,65.56586 16.74507,20.37164 c 46.08382,56.06447 106.67637,134.25681 114.85521,148.21623 5.86341,10.00752 5.81796,17.57744 -0.16362,27.25263 l -4.5767,7.40278 -138.33632,0.39901 c -76.08497,0.21947 -138.68173,0.0536 -139.10392,-0.36857 z M 587.02525,198.84498 V 31.454544 L 431.94712,32.532579 C 169.71746,34.355483 39.880457,36.192744 37.965023,38.107627 36.740282,39.332016 36.119121,85.683175 35.810951,198.84498 l -0.433047,159.01681 3.290067,2.97747 c 4.996853,4.52208 23.184913,4.83356 299.529149,5.12959 l 248.82813,0.26655 z"
       id="path3482"
       transform="matrix(0.26458333,0,0,0.26458333,7.0413263,60.454135)" />
    <path
       style="opacity:0.639731;fill:#ffdc59;fill-opacity:1;fill-rule:nonzero;stroke-width:1.5625"
       d="M 316.71275,595.69349 C 232.06431,594.98879 141.24722,593.86235 114.897,593.19031 61.155745,591.81965 63.041104,592.26512 58.355135,579.83077 56.177881,574.05337 49.024521,548.5682 29.978973,478.7354 21.120056,446.25312 18.153248,431.86127 16.7728,414.6729 15.09221,393.74737 15.501306,17.883358 17.208415,14.444201 17.910708,13.029355 20.723203,11.360483 23.458404,10.735596 29.808513,9.2848448 576.14356,7.8340297 591.41478,9.227365 c 9.76559,0.891005 11.6025,1.530958 12.67459,4.415654 2.01738,5.428215 3.79275,82.477269 7.22438,313.529881 0.74739,50.32183 1.4682,66.97394 2.97595,68.75 39.679,46.74019 125.85836,158.0028 131.18058,169.36183 3.68287,7.86025 2.7004,16.95822 -2.76649,25.61834 l -4.15525,6.58233 -133.96476,-0.25531 c -73.68064,-0.14043 -203.2226,-0.83188 -287.87103,-1.5366 z M 587.02525,198.81574 V 31.396082 L 424.13462,32.48388 C 228.1547,33.79265 43.001379,36.151482 39.799218,37.380266 35.87269,38.887016 35.462746,55.20343 35.462746,209.97898 c 0,147.0544 0.01955,147.97728 3.194908,150.85093 4.930384,4.46194 28.036816,4.85674 301.101966,5.14472 l 247.26563,0.26077 z"
       id="path3484"
       transform="matrix(0.26458333,0,0,0.26458333,7.0413263,60.454135)" />
    <path
       style="opacity:0.639731;fill:#ffdc59;fill-opacity:1;fill-rule:nonzero;stroke-width:1.5625"
       d="M 319.83775,595.72212 C 235.18931,595.02831 143.58814,593.82662 116.27959,593.0517 60.78899,591.47707 62.945596,591.96915 58.336257,579.83077 53.443487,566.94601 21.657779,447.88854 18.821318,431.82246 16.110416,416.46757 15.931496,403.09902 15.931496,215.90043 c 0,-189.383489 0.142004,-199.695919 2.786313,-202.343753 2.464125,-2.467412 6.981003,-2.883038 39.0625,-3.594393 19.951903,-0.4424008 150.322831,-0.7939633 289.713151,-0.78125 200.29129,0.018267 253.84561,0.4316278 255.3856,1.971199 2.99859,2.997793 4.53617,56.861056 7.70533,269.926917 1.63848,110.15716 1.67407,110.97245 5.06109,115.90611 1.87606,2.73272 13.60633,17.45984 26.06727,32.72692 29.35293,35.96308 88.67237,112.38506 97.91304,126.14263 9.36361,13.94059 10.20314,20.46206 4.15233,32.25559 l -4.40912,8.59375 -132.8125,0.13969 c -73.04688,0.0769 -202.07032,-0.42793 -286.71875,-1.12172 z M 587.02525,198.81445 V 31.393485 l -162.10938,1.078234 c -190.83816,1.269316 -382.018961,3.719852 -385.191704,4.937347 -3.766445,1.44532 -4.26142,21.762472 -4.26142,174.917954 0,145.21902 0.0087,145.61943 3.230964,148.53552 2.803105,2.53678 6.889652,3.05062 30.859375,3.8803 15.195627,0.52598 137.843255,1.07697 272.550285,1.22443 l 244.92188,0.26813 z"
       id="path3486"
       transform="matrix(0.26458333,0,0,0.26458333,7.0413263,60.454135)" />
    <path
       style="opacity:0.639731;fill:#ffdc59;fill-opacity:1;fill-rule:nonzero;stroke-width:1.5625"
       d="m 322.1815,595.69198 c -175.31389,-1.41616 -251.678137,-3.15417 -256.701152,-5.84241 -1.882516,-1.0075 -4.46685,-3.85086 -5.742966,-6.31859 C 57.011074,578.25887 25.72985,464.45948 21.056177,442.81084 19.29212,434.63966 17.324028,417.75884 16.682639,405.2979 16.04125,392.83696 15.609857,300.22516 15.723987,199.4939 15.919797,26.67221 16.087085,16.190584 18.691091,13.586983 21.187299,11.091163 27.227102,10.707314 81.97234,9.5652615 176.38976,7.5955984 600.51446,8.7861222 602.7549,11.027105 c 3.13199,3.132752 3.91691,32.091905 8.66846,319.812495 l 1.0282,62.26044 20.992,26.02081 c 22.0687,27.35542 66.14136,83.40467 87.42076,111.17705 28.49836,37.19405 30.67446,42.68448 22.91346,57.8125 l -4.40878,8.59375 -132.8125,0.10609 c -73.04688,0.0583 -201.01563,-0.44486 -284.375,-1.11823 z M 587.02525,198.81313 V 31.372321 L 431.94712,32.404869 C 180.44587,34.079424 41.789763,36.131727 38.393423,38.230008 36.597265,39.339686 36.164424,65.58566 35.759851,197.92057 c -0.473238,154.7947 -0.415835,158.447 2.547864,162.10702 2.934998,3.62456 3.925356,3.7749 30.952895,4.69851 15.356488,0.52478 138.13573,1.08322 272.84276,1.24099 l 244.92188,0.28686 z"
       id="path3488"
       transform="matrix(0.26458333,0,0,0.26458333,7.0413263,60.454135)" />
    <path
       style="opacity:0.639731;fill:#ffdc59;fill-opacity:1;fill-rule:nonzero;stroke-width:1.5625"
       d="M 332.33775,595.85995 C 170.20134,594.59901 83.741404,593.07846 72.420535,591.28888 59.402046,589.23093 61.392132,594.02995 37.986507,508.25268 19.933652,442.09232 18.09143,433.33149 16.6658,406.8604 16.040984,395.25884 15.62016,302.64701 15.730634,201.05634 15.951246,-1.8158546 15.206131,13.003279 25.306496,10.608003 31.12867,9.2272892 573.7209,8.4411175 590.9115,9.7884876 l 12.47998,0.9781614 1.04341,6.25 c 0.57387,3.4375 1.47275,23.828125 1.9975,45.3125 0.52476,21.484375 1.28014,48.554691 1.67862,60.156251 0.39847,11.60156 1.19405,58.35937 1.76794,103.90625 0.57389,45.54687 1.19798,86.32812 1.38686,90.625 0.18889,4.29687 0.43703,23.05272 0.55144,41.67964 l 0.208,33.86714 29.38439,36.45505 c 63.54904,78.84059 100.2079,127.30306 104.19584,137.74533 3.16744,8.29379 2.44156,14.44556 -2.7953,23.69034 l -3.54042,6.25 -132.76287,0.12781 c -73.0196,0.0702 -196.39571,-0.36717 -274.16914,-0.97201 z M 587.02525,199.0479 V 31.860399 l -55.07813,0.02089 c -72.69866,0.02758 -360.13687,2.6811 -432.421874,3.991954 -31.367187,0.568828 -58.208053,1.652468 -59.646367,2.40809 -3.727,1.957989 -3.851013,7.095556 -4.168322,172.683687 -0.269155,140.45843 -0.17655,145.63718 2.667014,149.14883 2.8875,3.56592 3.669277,3.65719 39.468638,4.6076 20.087532,0.53328 142.870441,1.09207 272.850911,1.24178 l 236.32813,0.27217 z"
       id="path3490"
       transform="matrix(0.26458333,0,0,0.26458333,7.0413263,60.454135)" />
    <path
       style="opacity:0.639731;fill:#ffdc59;fill-opacity:1;fill-rule:nonzero;stroke-width:0.413411"
       d="m 129.37328,218.14727 c -0.0865,-0.0741 -19.39281,-0.25695 -42.90281,-0.40642 -40.978824,-0.26055 -51.142576,-0.4212 -58.64283,-0.92694 -3.003493,-0.20252 -3.506837,-0.35331 -4.224381,-1.26552 -0.975254,-1.23983 -1.812991,-3.95041 -6.230236,-20.15852 -4.529503,-16.62001 -5.388838,-20.60228 -5.758908,-26.68752 -0.382807,-6.29468 -0.448127,-95.368842 -0.07397,-100.868622 0.26132,-3.841166 0.292997,-3.936552 1.507164,-4.538393 1.080165,-0.535418 10.524295,-0.631705 73.173829,-0.746036 39.563472,-0.0722 73.879752,0.01671 76.258392,0.197573 l 4.32481,0.328848 0.30179,1.44694 c 0.39305,1.88446 1.10481,30.063908 1.39401,55.19043 0.12561,10.91406 0.30846,21.05298 0.40632,22.53092 0.0979,1.47795 0.18372,6.99107 0.1908,12.25138 l 0.0129,9.56421 6.46564,8.00578 c 15.8892,19.67406 27.10679,34.36914 28.51747,37.35799 1.25766,2.66465 1.23301,3.70032 -0.1532,6.43711 l -1.13688,2.24453 -36.63626,0.0885 c -20.14995,0.0487 -36.70708,0.0279 -36.79362,-0.0462 z M 162.49555,112.8316 V 68.536384 l -38.96403,0.279798 C 68.310487,69.212721 19.80565,69.875064 18.3895,70.251916 l -1.208076,0.321481 -0.241823,4.105979 c -0.416469,7.071355 -0.417156,78.984124 -7.93e-4,80.079314 0.212275,0.55832 0.725768,1.1653 1.141094,1.34883 1.432973,0.63323 22.044872,0.86706 83.127368,0.94306 l 61.28827,0.0763 z"
       id="path3492" />
    <path
       style="opacity:0.639731;fill:#ffdc59;fill-opacity:1;fill-rule:nonzero;stroke-width:1.5625"
       d="m 192.9004,293.59387 c -4.93273,-1.25338 -11.91239,-3.78067 -15.51035,-5.61622 -6.37404,-3.25178 -23.1773,-17.91605 -23.1773,-20.22691 0,-0.63598 3.23164,-5.08178 7.18143,-9.87956 l 7.18143,-8.7232 7.27169,7.44583 c 10.5968,10.85057 20.15259,15.00392 34.61545,15.04534 19.30068,0.0553 30.51873,-8.4157 34.26249,-25.87228 1.03139,-4.80919 1.67501,-31.49614 1.67501,-69.45213 V 114.6729 H 209.6815 172.96275 V 102.95415 91.235399 h 50.06652 50.06652 l -0.45714,80.078121 c -0.44764,78.41233 -0.52874,80.25291 -3.89839,88.48055 -7.07591,17.27714 -16.66149,26.76033 -32.49626,32.14914 -10.81844,3.68167 -32.1528,4.49414 -43.3436,1.65066 z"
       id="path3494"
       transform="matrix(0.26458333,0,0,0.26458333,7.0413263,60.454135)" />
    <path
       style="opacity:0.639731;fill:#ffdc59;fill-opacity:1;fill-rule:nonzero;stroke-width:1.5625"
       d="m 187.8065,291.14535 c -5.15625,-1.81756 -11.83594,-5.10861 -14.84375,-7.31342 -6.91618,-5.06975 -17.1875,-14.75741 -17.1875,-16.21083 0,-0.60779 2.85651,-4.71884 6.34779,-9.13565 l 6.3478,-8.03057 9.33831,8.64563 c 11.57323,10.71476 21.81357,14.2654 37.04148,12.8434 13.64072,-1.27379 22.2859,-6.45187 27.10266,-16.23331 3.64852,-7.40904 3.66783,-7.7572 4.11956,-74.24083 l 0.45386,-66.79687 H 209.74473 172.96275 V 102.95415 91.235399 h 49.81804 49.81804 l -0.61796,64.453121 c -0.94093,98.13857 -0.8897,97.24629 -6.20592,108.10341 -10.14225,20.71317 -24.55541,29.01091 -52.1872,30.04445 -13.76125,0.51472 -17.91769,0.0809 -25.78125,-2.69103 z"
       id="path3496"
       transform="matrix(0.26458333,0,0,0.26458333,7.0413263,60.454135)" />
    <path
       style="opacity:0.639731;fill:#ffdc59;fill-opacity:1;fill-rule:nonzero;stroke-width:1.5625"
       d="m 185.18398,289.1689 c -8.99708,-3.79628 -17.7301,-9.93966 -24.59766,-17.30361 -4.21563,-4.52031 -3.62846,-6.86856 3.87114,-15.48189 l 3.81649,-4.38325 8.98502,7.34805 c 12.47747,10.20421 19.4121,13.06167 31.79874,13.10289 20.9343,0.0696 31.96763,-7.58738 35.97408,-24.96569 0.69342,-3.00781 1.31614,-33.94531 1.3838,-68.75 l 0.12303,-63.28125 -36.78794,-0.41891 -36.78793,-0.4189 V 102.92587 91.235399 h 49.21875 49.21875 l -0.0796,57.421871 c -0.0438,31.58204 -0.6403,68.72499 -1.32557,82.5399 -1.20922,24.37737 -1.39964,25.40637 -6.45789,34.8966 -2.87865,5.40091 -8.11689,12.15899 -11.70083,15.09575 -9.94254,8.14718 -17.79461,10.37882 -39.02983,11.09272 -17.07903,0.57419 -19.54071,0.29674 -27.62252,-3.11334 z"
       id="path3498"
       transform="matrix(0.26458333,0,0,0.26458333,7.0413263,60.454135)" />
    <path
       style="opacity:0.639731;fill:#ffdc59;fill-opacity:1;fill-rule:nonzero;stroke-width:1.5625"
       d="m 194.71344,291.15782 c -3.93555,-0.63233 -9.91211,-2.56001 -13.28125,-4.28378 -9.43289,-4.82617 -22.53194,-16.13741 -22.53194,-19.45669 0,-3.28889 7.34607,-13.68195 9.67075,-13.68195 0.81804,0 4.77756,2.77072 8.79892,6.15716 10.70802,9.01734 19.50691,12.5195 31.53033,12.54981 5.58593,0.0141 12.96875,-0.75138 16.40625,-1.70103 7.78322,-2.15021 16.67328,-11.20805 19.16589,-19.52763 1.30287,-4.34859 1.89213,-25.65553 1.9632,-70.98661 l 0.10155,-64.77295 -36.7872,-0.41891 -36.78719,-0.4189 V 102.92587 91.235399 h 49.44447 49.44447 L 270.72,163.50102 c -0.62242,39.7461 -1.68326,77.20425 -2.35742,83.24035 -1.964,17.58487 -11.98134,33.08383 -25.66382,39.7074 -8.48911,4.1095 -35.32543,6.7431 -47.98532,4.70905 z"
       id="path3500"
       transform="matrix(0.26458333,0,0,0.26458333,7.0413263,60.454135)" />
    <path
       style="opacity:0.639731;fill:#ffdc59;fill-opacity:1;fill-rule:nonzero;stroke-width:1.5625"
       d="m 186.56737,288.92956 c -9.92348,-3.7919 -27.66712,-17.81596 -27.66712,-21.8673 0,-2.30595 7.63063,-13.32686 9.22722,-13.32686 0.71613,0 4.83655,2.8142 9.15648,6.25378 11.57542,9.21648 19.71665,12.42319 31.6163,12.45319 5.58593,0.0141 12.96875,-0.75138 16.40625,-1.70103 8.37578,-2.31391 17.01115,-11.5513 19.30151,-20.64713 1.20331,-4.77878 1.79224,-28.19789 1.79224,-71.26947 V 114.6729 H 209.6815 172.96275 V 102.95415 91.235399 h 49.21875 49.21875 l -0.0735,25.390621 c -0.0404,13.96485 -0.68934,50 -1.44199,80.07813 -1.16819,46.68397 -1.78147,55.78189 -4.1905,62.16534 -4.52213,11.98282 -12.75301,21.56021 -23.05841,26.83058 -8.60131,4.39888 -10.36063,4.70069 -29.64291,5.08527 -14.9686,0.29854 -22.09782,-0.20211 -26.42553,-1.85578 z"
       id="path3502"
       transform="matrix(0.26458333,0,0,0.26458333,7.0413263,60.454135)" />
    <path
       style="opacity:0.639731;fill:#ffdc59;fill-opacity:1;fill-rule:nonzero;stroke-width:1.5625"
       d="M 333.90025,192.01665 V 91.235399 h 70.3125 70.3125 V 102.95415 114.6729 H 417.494 360.46275 v 32.03125 32.03125 h 50.78125 50.78125 v 11.71875 11.71875 H 411.244 360.46275 v 33.59375 33.59375 h 59.375 59.375 v 11.71875 11.71875 H 406.5565 333.90025 Z"
       id="path3504"
       transform="matrix(0.26458333,0,0,0.26458333,7.0413263,60.454135)" />
    <path
       style="opacity:0.639731;fill:#ffdc59;fill-opacity:1;fill-rule:nonzero;stroke-width:1.5625"
       d="M 333.90025,192.01665 V 91.235399 h 70.3125 70.3125 V 102.95415 114.6729 H 417.494 360.46275 v 32.03125 32.03125 h 50.78125 50.78125 v 11.71875 11.71875 H 411.244 360.46275 v 33.59375 33.59375 h 59.375 59.375 v 11.71875 11.71875 H 406.5565 333.90025 Z"
       id="path3506"
       transform="matrix(0.26458333,0,0,0.26458333,7.0413263,60.454135)" />
    <path
       style="opacity:0.639731;fill:#ffdc59;fill-opacity:1;fill-rule:nonzero;stroke-width:1.5625"
       d="M 333.90025,192.01665 V 91.235399 h 70.3125 70.3125 V 102.95415 114.6729 H 417.494 360.46275 v 32.03125 32.03125 h 50.78125 50.78125 v 11.71875 11.71875 H 411.244 360.46275 v 33.59375 33.59375 h 59.375 59.375 v 11.71875 11.71875 H 406.5565 333.90025 Z"
       id="path3508"
       transform="matrix(0.26458333,0,0,0.26458333,7.0413263,60.454135)" />
    <path
       style="opacity:0.639731;fill:#ffdc59;fill-opacity:1;fill-rule:nonzero;stroke-width:1.5625"
       d="M 333.90025,192.01665 V 91.235399 h 70.3125 70.3125 V 102.95415 114.6729 H 417.494 360.46275 v 32.03125 32.03125 h 50.78125 50.78125 v 11.71875 11.71875 H 411.244 360.46275 v 33.59375 33.59375 h 59.375 59.375 v 11.71875 11.71875 H 406.5565 333.90025 Z"
       id="path3510"
       transform="matrix(0.26458333,0,0,0.26458333,7.0413263,60.454135)" />
    <path
       style="opacity:0.639731;fill:#ffdc59;fill-opacity:1;fill-rule:nonzero;stroke-width:1.5625"
       d="M 333.90025,192.01665 V 91.235399 h 70.3125 70.3125 V 102.95415 114.6729 H 417.494 360.46275 v 32.03125 32.03125 h 50.78125 50.78125 v 11.71875 11.71875 H 411.244 360.46275 v 33.59375 33.59375 h 59.375 59.375 v 11.71875 11.71875 H 406.5565 333.90025 Z"
       id="path3512"
       transform="matrix(0.26458333,0,0,0.26458333,7.0413263,60.454135)" />
    <path
       style="opacity:0.639731;fill:#ffdc59;fill-opacity:1;fill-rule:nonzero;stroke-width:1.5625"
       d="m 187.8065,289.4041 c -10.13994,-3.86115 -28.90625,-18.27794 -28.90625,-22.20656 0,-2.40555 7.57841,-13.46214 9.22722,-13.46214 0.71613,0 4.83655,2.8142 9.15648,6.25378 11.57542,9.21648 19.71665,12.42319 31.6163,12.45319 5.58593,0.0141 12.96875,-0.75138 16.40625,-1.70103 8.99978,-2.48628 17.24362,-11.70722 19.3823,-21.67957 1.08053,-5.03834 1.71145,-31.28004 1.71145,-71.18453 V 114.6729 H 209.6815 172.96275 V 102.95415 91.235399 h 49.43901 49.43902 l -1.09203,66.015621 c -1.41157,85.33306 -2.34823,96.78661 -8.92404,109.12408 -5.30043,9.94463 -12.86905,17.01503 -22.70853,21.21369 -7.54854,3.22108 -44.21152,4.5182 -51.30968,1.81531 z"
       id="path3514"
       transform="matrix(0.26458333,0,0,0.26458333,7.0413263,60.454135)" />
    <path
       style="opacity:0.639731;fill:#ffdc59;fill-opacity:1;fill-rule:nonzero;stroke-width:1.5625"
       d="m 187.8065,289.4346 c -6.67267,-2.52147 -19.50901,-11.21173 -24.94203,-16.88587 l -4.62953,-4.835 2.93499,-5.44996 c 4.39751,-8.16567 6.45093,-9.38961 10.62045,-6.33031 20.78041,15.24719 27.64098,17.70289 45.04762,16.12452 11.62431,-1.05407 18.96573,-5.53208 24.49795,-14.94294 l 4.28305,-7.28589 0.48139,-67.57813 0.48139,-67.57812 H 209.77226 172.96275 V 102.95415 91.235399 h 49.44005 49.44006 l -1.12403,66.796871 c -0.61822,36.73829 -1.70705,73.622 -2.41964,81.96381 -1.51817,17.7724 -5.8864,28.8726 -14.91523,37.90144 -9.82492,9.82491 -17.08995,12.1126 -40.49564,12.7516 -12.77013,0.34864 -22.14669,-0.10531 -25.08182,-1.21452 z"
       id="path3516"
       transform="matrix(0.26458333,0,0,0.26458333,7.0413263,60.454135)" />
    <path
       style="opacity:0.639731;fill:#ffdc59;fill-opacity:1;fill-rule:nonzero;stroke-width:1.5625"
       d="m 186.76541,289.16113 c -6.44475,-2.42448 -18.88093,-11.17962 -24.67463,-17.37109 l -3.84072,-4.10439 2.92743,-5.43592 c 4.94941,-9.19049 6.38337,-9.61164 13.79495,-4.05161 16.35942,12.27251 19.52941,13.50603 34.70906,13.50603 17.59961,0 24.41007,-3.06819 31.25,-14.07844 l 4.6875,-7.5455 0.48139,-67.70366 0.48139,-67.70365 H 209.77226 172.96275 V 102.95415 91.235399 h 49.45355 49.45356 l -1.11215,67.578121 c -0.61169,37.16797 -1.7293,74.19129 -2.48359,82.27404 -2.24882,24.09779 -11.67072,39.11167 -29.15794,46.46339 -8.34782,3.50946 -44.35789,4.61706 -52.35077,1.61018 z"
       id="path3518"
       transform="matrix(0.26458333,0,0,0.26458333,7.0413263,60.454135)" />
    <path
       style="opacity:0.639731;fill:#ffdc59;fill-opacity:1;fill-rule:nonzero;stroke-width:1.5625"
       d="m 186.63145,289.1066 c -9.09242,-3.40064 -27.7312,-18.21004 -27.7312,-22.03375 0,-2.18833 7.58533,-13.33745 9.07416,-13.33745 0.63195,0 5.82468,3.40875 11.5394,7.57498 12.77522,9.31363 21.38412,11.93646 35.00435,10.66458 17.47034,-1.6314 27.97577,-10.50383 30.48733,-25.74823 0.66466,-4.0343 1.25039,-35.2843 1.30161,-69.44446 l 0.0932,-62.10937 H 209.6815 172.96275 V 102.95415 91.235399 h 49.46392 49.46393 l -1.10309,67.578121 c -0.6067,37.16797 -1.71613,74.0732 -2.4654,82.01163 -2.21414,23.45861 -10.2715,37.3988 -26.08941,45.13778 -7.88443,3.85748 -10.65936,4.31319 -29.22515,4.79925 -14.90555,0.39025 -22.11626,-0.0623 -26.3761,-1.65558 z"
       id="path3520"
       transform="matrix(0.26458333,0,0,0.26458333,7.0413263,60.454135)" />
    <path
       style="opacity:0.639731;fill:#ffdc59;fill-opacity:1;fill-rule:nonzero;stroke-width:0.390625"
       d=""
       id="path3522"
       transform="matrix(0.26458333,0,0,0.26458333,7.0413263,60.454135)" />
    <path
       style="opacity:0.639731;fill:#ffdc59;fill-opacity:1;fill-rule:nonzero;stroke-width:0.390625"
       d=""
       id="path3524"
       transform="matrix(0.26458333,0,0,0.26458333,7.0413263,60.454135)" />
    <path
       style="opacity:0.639731;fill:#ffdc59;fill-opacity:1;fill-rule:nonzero;stroke-width:0.390625"
       d=""
       id="path3526"
       transform="matrix(0.26458333,0,0,0.26458333,7.0413263,60.454135)" />
    <path
       style="opacity:0.639731;fill:#ffdc59;fill-opacity:1;fill-rule:nonzero;stroke-width:0.390625"
       d=""
       id="path3528"
       transform="matrix(0.26458333,0,0,0.26458333,7.0413263,60.454135)" />
    <path
       style="opacity:0.639731;fill:#ffdc59;fill-opacity:1;fill-rule:nonzero;stroke-width:0.390625"
       d=""
       id="path3530"
       transform="matrix(0.26458333,0,0,0.26458333,7.0413263,60.454135)" />
    <path
       style="opacity:0.639731;fill:#ffdc59;fill-opacity:1;fill-rule:nonzero;stroke-width:0.390625"
       d=""
       id="path3532"
       transform="matrix(0.26458333,0,0,0.26458333,7.0413263,60.454135)" />
    <path
       style="opacity:0.639731;fill:#ffdc59;fill-opacity:1;fill-rule:nonzero;stroke-width:0.390625"
       d=""
       id="path3534"
       transform="matrix(0.26458333,0,0,0.26458333,7.0413263,60.454135)" />
    <path
       style="opacity:0.639731;fill:#ffdc59;fill-opacity:1;fill-rule:nonzero;stroke-width:0.390625"
       d=""
       id="path3536"
       transform="matrix(0.26458333,0,0,0.26458333,7.0413263,60.454135)" />
  </g>
</svg>
